<svg width="14" height="14" viewBox="0 0 14 14" fill="none" xmlns="http://www.w3.org/2000/svg">
<path d="M13.2143 12.4081C13.6476 12.4081 14 12.7651 14 13.204C14 13.6438 13.6476 14 13.2143 14H8.77309C8.33979 14 7.98736 13.6438 7.98736 13.204C7.98736 12.7651 8.33979 12.4081 8.77309 12.4081H13.2143ZM10.1343 0.543716L11.2816 1.45505C11.752 1.82293 12.0656 2.30787 12.1729 2.81788C12.2967 3.3789 12.1647 3.92988 11.7933 4.40645L4.95942 13.2439C4.64579 13.6452 4.1836 13.871 3.68839 13.8794L0.964752 13.9128C0.81619 13.9128 0.692388 13.8125 0.659374 13.6703L0.0403655 10.9865C-0.0669294 10.4932 0.0403655 9.98317 0.353997 9.59021L5.19877 3.31954C5.28131 3.2192 5.42987 3.20332 5.52891 3.27773L7.56751 4.89975C7.69957 5.00844 7.88114 5.06696 8.07097 5.04188C8.47539 4.99172 8.74775 4.62384 8.70649 4.23087C8.68173 4.03021 8.58268 3.86299 8.45063 3.73758C8.40936 3.70414 6.4698 2.14901 6.4698 2.14901C6.346 2.04868 6.32124 1.86474 6.42028 1.74016L7.18785 0.744378C7.89765 -0.16696 9.13566 -0.250569 10.1343 0.543716Z" fill="#FF8811"/>
</svg>
